<svg
  version="1.1"
  id="Layer_1"
  xmlns="http://www.w3.org/2000/svg"
  xmlns:xlink="http://www.w3.org/1999/xlink"
  x="0px"
  y="0px"
  width="100%"
  height="132.066px"
  viewBox="0 388.889 1000 132.066"
  enable-background="new 0 388.889 1000 132.066"
  xml:space="preserve"
>
  <path
    fill="#61896d"
    d="M0,500h20.833c20.833,0,62.5,0,104.167,3.681c41.667,3.958,83.333,10.902,125,14.861
c41.667,3.681,83.333,3.681,125-3.75c41.667-7.153,83.333-22.431,125-44.444c41.667-22.431,83.333-51.598,125-48.125
c41.667,3.472,83.333,40.972,125,51.875c41.667,11.319,83.333-3.959,125-14.861c41.667-11.319,83.333-18.264,104.167-22.223
l20.833-3.681v-44.444h-20.833c-20.834,0-62.5,0-104.167,0s-83.333,0-125,0s-83.333,0-125,0s-83.333,0-125,0s-83.333,0-125,0
s-83.333,0-125,0s-83.333,0-125,0s-83.333,0-104.167,0H0V500z"
  />
</svg>